<?xml version="1.0" encoding="utf-8"?>
<!-- Generator: Adobe Illustrator 27.5.0, SVG Export Plug-In . SVG Version: 6.00 Build 0)  -->
<svg version="1.1" id="Ñëîé_1" xmlns="http://www.w3.org/2000/svg" xmlns:xlink="http://www.w3.org/1999/xlink" x="0px" y="0px"
	 viewBox="0 0 2550 2000" style="enable-background:new 0 0 2550 2000;" xml:space="preserve">
<g>
	<defs>
		<rect id="SVGID_1_" width="2550" height="2000"/>
	</defs>
	<clipPath id="SVGID_00000025417203464965428790000015339040728233618077_">
		<use xlink:href="#SVGID_1_"  style="overflow:visible;"/>
	</clipPath>
	
		<rect x="1.091" style="clip-path:url(#SVGID_00000025417203464965428790000015339040728233618077_);fill:#DDE7FE;" width="2661.131" height="2133.705"/>
	
		<rect x="996.335" y="251.757" style="clip-path:url(#SVGID_00000025417203464965428790000015339040728233618077_);fill:#7798F8;" width="1394.269" height="930.443"/>
	<g style="clip-path:url(#SVGID_00000025417203464965428790000015339040728233618077_);">
		<path style="fill:#FFFFFF;" d="M984.835,240.247v953.451h1417.276V240.247H984.835z M2379.104,1170.693H1007.842V263.254h1371.262
			V1170.693z"/>
	</g>
	<g style="clip-path:url(#SVGID_00000025417203464965428790000015339040728233618077_);">
		<path style="fill:#FF8B8D;" d="M1858.813,1094.569c0,0-21.729,20.927-28.557,17.702c-6.829-3.223-20.445-23.739-18.3-31.359
			s38.491-12.035,38.491-12.035L1858.813,1094.569z"/>
		<path style="fill:#100259;" d="M2173.709,546.068c-30.838,20.175-54.626,55.509-50.303,92.113
			c2.574,21.8,14.494,44.651,4.933,64.407c-6.374,13.151-20.513,20.424-30.392,31.189c-19.39,21.118-19.275,57.249,0.242,78.245
			c13.207,14.207,33.58,21.871,42.502,39.095c4.526,8.719,5.495,18.931,9.982,27.666c9.281,18.076,31.845,25.805,52.115,24.338
			c20.27-1.467,39.175-10.184,58.183-17.338c19.021-7.155,39.71-12.899,59.483-8.192c32.305,7.695,55.915,41.761,89.136,41.666
			c29.45-0.083,52.728-30.5,51.81-59.942c-0.931-29.442-20.882-55.636-45.537-71.767c-8.924-5.842-19.02-11.151-23.967-20.6
			c-8.401-16.03,1.683-34.913,8.337-51.743c7.726-19.571,9.6-44.752-5.863-59.03c-4.347-4.013-9.804-6.87-13.386-11.575
			c-5.647-7.412-5.418-17.538-6.106-26.833c-2.995-41.058-31.36-78.269-68.573-94.898
			C2263.292,503.655,2211.776,521.176,2173.709,546.068L2173.709,546.068z"/>
		<path style="fill:#FF8B8D;" d="M2021.22,1003.803l-190.281,75.591l29.254,19.81c0,0,157.627-14.169,206.055-58.77
			C2114.665,995.827,2021.22,1003.803,2021.22,1003.803L2021.22,1003.803z"/>
		<path style="fill:#FF8B8D;" d="M2245.813,1760.599c0,0,62.594,301.127,40.82,331.877c-21.786,30.748-56.104,61.828-56.921,78.185
			c-0.828,16.355,113.499-21.176,121.313-38.716c7.815-17.555,1.582-43.524-0.459-118.841
			c-2.052-75.329-18.816-229.328-18.816-229.328L2245.813,1760.599L2245.813,1760.599z"/>
		<path style="fill:#100259;" d="M2229.712,2170.661c0.561-11.13,16.625-29.079,33.708-49.107
			c10.146,32.968,70.433-12.901,90.958-29.728c0.982,19.517,0.727,30.965-3.353,40.119
			C2343.211,2149.485,2228.896,2187.016,2229.712,2170.661L2229.712,2170.661z"/>
		<path style="fill:#FF8B8D;" d="M2109.51,1763.518c0,0,13.334,307.285-13.106,334.12c-26.439,26.847-65.322,52-68.764,68.011
			c-3.442,16.013,115.422-2.639,125.966-18.7c10.542-16.063,8.566-42.695,18.664-117.362c10.096-74.679,18.32-229.367,18.32-229.367
			L2109.51,1763.518L2109.51,1763.518z"/>
		<path style="fill:#100259;" d="M2027.639,2165.649c2.345-10.899,21.099-26.031,41.164-43.038
			c4.718,34.153,71.595-1.403,94.568-14.725c-2.181,19.428-4.271,30.685-9.765,39.062
			C2143.062,2163.011,2024.198,2181.662,2027.639,2165.649L2027.639,2165.649z"/>
		<path style="fill:#FF6760;" d="M2113.978,981.944c0,0-2.387,76.292-6.091,97.45c-0.391,2.244-0.783,3.869-1.214,4.714
			c-4.405,8.788-77.651,80.553-71.786,209.45c5.866,128.897,19.531,527.321,19.531,527.321h305.666
			c0,0-14.653-477.516-20.519-536.11c-4.239-42.293-40.503-110.519-60.363-145.217c-7.965-13.872-8.624-30.728-1.75-45.196
			l1.523-3.232l51.802-109.18l29.306,127.066l63.945-9.323c0,0-12.184-254.79-50.835-286.609
			c-58.141-47.85-197.677-38.054-197.677-38.054s-54.992,3.108-72.424,26.57c-28.32,38.074-76.664,193.48-101.546,209.595
			c0,0,22.618,38.095,46.06,45.422C2047.606,1056.611,2103.729,1006.826,2113.978,981.944z"/>
		<path style="fill:#FFFFFF;" d="M2303.423,783.441c0,0,76.796,51.064-110.515,86.752c0,0-76.871-76.078-13.934-95.388
			l49.272,23.169L2303.423,783.441L2303.423,783.441z"/>
		<path style="fill:#FA5D63;" d="M2183.959,632.031c0,0-5.406-10.473-10.951-7.054c-14.137,8.714-1.491,23.703,6.871,27.545
			L2183.959,632.031L2183.959,632.031z"/>
		<path style="fill:#FF8B8D;" d="M2210.641,763.593l4.08-37.367c-49.464-11.44-32.712-103.2-29.729-130.537l0.076,0.024
			c0.077-1.028,0.153-2.059,0.255-3.094c4.882-44.704,45.652-76.792,90.487-70.693c40.757,5.542,71.441,42.697,69.146,83.754
			c-0.727,13.207-4.602,25.397-10.798,35.985c-14.112,26.756-25.7,48.247-38.907,63.301c-13.194,15.063-20.32,34.458-19.658,54.478
			v0.001c0.37,10.867,8.159,20.057,18.817,22.191l9.013,1.804l-110.515,86.752l-13.934-95.388l20.499-0.793
			C2205.261,773.789,2210.016,769.356,2210.641,763.593L2210.641,763.593z"/>
		<path style="fill:#100259;" d="M2275.849,604.08c8.669,10.99,15.948,22.995,23.202,34.964
			c7.674,12.668,15.578,26.088,15.985,40.895c13.998-8.414,23.866-22.166,32.432-36.063c3.977-6.443,7.803-13.11,9.689-20.444
			c2.651-10.386,1.224-21.326-0.229-31.949c-1.861-13.709-3.952-28.006-11.919-39.322c-5.279-7.493-12.787-13.133-20.627-17.867
			c-18.306-11.043-39.507-17.847-60.873-17.205c-21.379,0.643-42.822,9.167-57.24,24.944
			c-18.587,20.321-23.559,49.252-27.741,76.468c3.991-11.051,12.532-19.745,20.819-28.064c5.392-5.41,10.925-10.921,17.81-14.258
			c11.714-5.69,14.621-3.854,35.274-14.797C2255.617,578.788,2265,590.331,2275.849,604.08L2275.849,604.08z"/>
		<path style="fill:#FF8B8D;" d="M2307.44,661.338c1.568-2.437,4.028-4.157,6.807-4.943c5.749-1.619,15.706-2.983,21.647,4.411
			c8.719,10.849-13.793,34.636-31.833,19.627C2304.061,680.433,2299.101,674.271,2307.44,661.338L2307.44,661.338z"/>
		<path style="fill:#080435;" d="M2197.064,634.222c0.051-3.861,3.212-6.954,7.076-6.907c3.863,0.046,6.947,3.214,6.91,7.076
			c-0.052,3.86-3.212,6.953-7.076,6.907C2200.111,641.25,2197.013,638.084,2197.064,634.222L2197.064,634.222z"/>
		<path style="fill:#080435;" d="M2261.864,648.73c0.051-3.861,3.212-6.954,7.075-6.907c3.862,0.046,6.96,3.214,6.909,7.075
			c-0.051,3.862-3.212,6.955-7.075,6.907C2264.91,655.759,2261.826,652.591,2261.864,648.73L2261.864,648.73z"/>
		<path style="fill:#FA5D63;" d="M2202.52,679.631c0,0,10.174-4.306,13.526-2.752c3.366,1.554,4.603,6.135,4.603,6.135
			s2.804-3.903,7.101-3.259c4.297,0.645,17.287,11.09,17.287,11.09s-16.496,16.034-29.105,11.524
			C2203.106,697.777,2202.52,679.631,2202.52,679.631L2202.52,679.631L2202.52,679.631z"/>
		<path style="fill:#100259;" d="M2283.113,643.938c0.817,0.157,1.696-0.037,2.397-0.606c1.238-1.017,1.415-2.849,0.396-4.091
			c-0.294-0.372-7.688-9.129-20.551-11.017c-1.593-0.234-3.072,0.862-3.301,2.45c-0.229,1.588,0.994,3.111,2.448,3.301
			c10.721,1.584,16.853,8.876,16.917,8.951C2281.865,643.473,2282.463,643.815,2283.113,643.938L2283.113,643.938z"/>
		<path style="fill:#100259;" d="M2211.621,619.002c0.777-0.31,1.415-0.946,1.695-1.797c0.497-1.528-0.332-3.168-1.862-3.668
			c-0.459-0.148-11.281-3.604-23.253,1.78c-1.465,0.658-2.115,2.376-1.465,3.841c0.662,1.468,2.434,2.111,3.837,1.463
			c9.906-4.453,18.983-1.586,19.072-1.557C2210.32,619.282,2211.021,619.244,2211.621,619.002L2211.621,619.002z"/>
		<path style="fill:#FA5D63;" d="M2227.699,671.799c-8.071-2.142-10.136-8.617-9.995-12.201c0.012-0.626,0.28-1.219,0.727-1.659
			c8.351-8.187,9.025-21.438,9.038-21.57c0.052-1.349,1.199-2.397,2.55-2.34c1.326,0.051,2.397,1.193,2.334,2.543
			c-0.026,0.602-0.69,14.492-9.703,24.058c0.269,1.97,1.773,6.479,9.625,6.942c1.378,0.093,2.385,1.24,2.296,2.588
			c-0.076,1.349-1.237,2.381-2.588,2.3C2230.4,672.366,2228.973,672.137,2227.699,671.799L2227.699,671.799z"/>
		<path style="fill:#FFFFFF;" d="M2245.036,690.845c0,0-26.161-5.431-42.516-11.213c0,0,5.571,14.632,15.616,16.355
			C2228.182,697.708,2245.036,690.845,2245.036,690.845L2245.036,690.845z"/>
		<path style="fill:#080435;" d="M2113.984,982.958c0.356,0,0.701-0.184,0.879-0.501c0.294-0.484,0.127-1.112-0.356-1.398
			c-0.269-0.152-26.288-15.942-16.74-57.123c4.589-19.829,33.018-35.038,33.298-35.189c0.497-0.264,0.688-0.875,0.421-1.375
			c-0.268-0.484-0.892-0.684-1.377-0.422c-1.198,0.636-29.524,15.799-34.331,36.525c-9.892,42.707,17.426,59.181,17.708,59.349
			C2113.64,982.909,2113.817,982.958,2113.984,982.958L2113.984,982.958z"/>
		<path style="fill:#080435;" d="M2250.428,988.719c22.284,0,43.981-15.797,45.066-16.593c0.445-0.333,0.548-0.969,0.216-1.422
			c-0.344-0.453-0.981-0.542-1.427-0.215c-0.306,0.222-30.66,22.284-55.48,14.496c-24.834-7.804-35.135-37.145-35.238-37.439
			c-0.177-0.54-0.739-0.842-1.287-0.634c-0.535,0.182-0.817,0.754-0.638,1.286c0.103,0.31,10.722,30.612,36.55,38.727
			C2242.206,988.187,2246.324,988.719,2250.428,988.719L2250.428,988.719z"/>
		<path style="fill:#100259;" d="M2034.886,1293.557c5.866,128.897,19.531,527.321,19.531,527.321h305.666
			c0,0-14.653-477.516-20.519-536.11c-4.239-42.293-40.503-110.519-60.363-145.217c-7.965-13.872-8.624-30.728-1.75-45.196
			l1.523-3.232h-115.603l-55.485-11.731c-0.391,2.244-0.783,3.869-1.214,4.714
			C2102.268,1092.895,2029.022,1164.66,2034.886,1293.557z"/>
		<path style="fill:#FF8B8D;" d="M2360.076,1108.999c0,0-49.806,140.623-77.152,199.214l21.125,22.081
			c0,0,115.142-147.677,114.657-229.828L2360.076,1108.999L2360.076,1108.999z"/>
		<path style="fill:#FF8B8D;" d="M2299.292,1290.251c0,0-29.436,7.699-38.678,12.696c-9.256,5.011-21.928,2.997-20.996,9.027
			c0.93,6.016,21.073,4.207,21.073,4.207s-12.11,17.631-16.649,22.488c-4.551,4.857-10.466,15.604-7.177,19.199
			c3.289,3.609,23.494-21.238,23.494-21.238s-14.953,22.59-12.634,26.568c2.334,3.977,25.585-21.979,25.585-21.979
			s-17.132,23.317-16.878,26.324c0.255,2.997,4.105,2.792,12.175-3.99c8.07-6.783,14.559-15.782,14.559-15.782
			s-10.812,17.273-11.384,19.81c-0.575,2.525,0.483,6.426,11.37-4.895c10.901-11.308,30.456-39.596,34.485-57.698L2299.292,1290.251
			L2299.292,1290.251z"/>
		<g>
			<path style="fill:#080435;" d="M2294.757,645.261c-1.371-13.93-13.831-24.154-27.776-22.783
				c-11.077,1.091-19.804,9.189-22.223,19.468c-0.21,0.811-0.363,1.65-0.462,2.49c-0.251,1.888-0.294,3.846-0.098,5.818
				c1.371,13.943,13.833,24.167,27.776,22.783c9.888-0.979,17.915-7.525,21.244-16.238c0.197-0.503,0.378-1.021,0.533-1.552
				C2294.728,652.114,2295.106,648.73,2294.757,645.261z M2271.82,671.512c-13.09,1.287-24.796-8.307-26.098-21.412
				c-1.287-13.09,8.322-24.797,21.413-26.097c13.091-1.287,24.796,8.321,26.098,21.412
				C2294.519,658.52,2284.924,670.211,2271.82,671.512z"/>
			<path style="fill:#080435;" d="M2225.975,627.317c-1.371-13.943-13.819-24.167-27.763-22.797
				c-5.944,0.587-11.216,3.189-15.188,7.063c-1.176,1.147-2.225,2.378-3.162,3.72c-0.013,0-0.013,0.014-0.013,0.014
				c-0.392,0.56-0.756,1.133-1.091,1.721c-1.314,2.252-2.293,4.699-2.853,7.3c-0.572,2.546-0.74,5.217-0.475,7.958
				c0.448,4.616,2.127,8.783,4.671,12.293v0.042c0.336,0.475,0.686,0.951,1.064,1.399c5.216,6.251,13.342,9.916,22.041,9.048
				c10.083-0.993,18.209-7.776,21.411-16.741v-0.014c0.238-0.63,0.435-1.259,0.603-1.902
				C2226.002,633.528,2226.282,630.464,2225.975,627.317z M2203.052,653.555c-8.615,0.853-16.642-3.021-21.481-9.497
				c-0.49-0.643-0.938-1.301-1.358-2v-0.028c-1.762-2.923-2.909-6.266-3.259-9.888c-0.251-2.531-0.097-5.007,0.434-7.356
				c0.852-3.986,2.712-7.609,5.314-10.616l0.014-0.014c3.846-4.448,9.343-7.482,15.651-8.098
				c13.09-1.301,24.796,8.307,26.083,21.398C2225.736,640.562,2216.143,652.268,2203.052,653.555z"/>
			<path style="fill:#080435;" d="M2244.389,644.664c-1.599-3.735-4.005-6.216-7.145-7.372c-6.005-2.207-12.829,1.124-12.893,1.154
				l-0.69-1.374c0.306-0.15,7.479-3.651,14.103-1.226c3.561,1.305,6.265,4.068,8.035,8.213L2244.389,644.664z"/>
			<polygon style="fill:#080435;" points="2315.35,655.949 2292.674,656.832 2292.618,655.295 2315.294,654.41 			"/>
		</g>
		<path style="fill:#080435;" d="M2282.924,1082.804c0,0-98.542,8.523-173.218-18.909l-8.253,27.231
			c0,0,57.861,28.346,170.999,22.857L2282.924,1082.804z"/>
		<g>
			<path style="fill:#100259;" d="M1435.046,686.595L1435.046,686.595c-2.372,1.845-2.595,5.348-0.468,7.472
				c47.4,47.354,504.979,495.785,504.979,495.785c0.548,0.52,1.413,0.499,1.934-0.049l17.578-18.5
				c0.519-0.548,0.497-1.414-0.051-1.934c0,0-479.411-446.825-518.75-482.579C1438.804,685.463,1436.604,685.382,1435.046,686.595z"
				/>
		</g>
		<path style="fill:#FF8B8D;" d="M1835.633,1109.781c0,0,13.464-22.271,10.579-24.558c-2.886-2.286-17.246,12.575-17.112,12.268
			c0.134-0.309,12.527-18.263,9.766-22.623c-2.762-4.358-18.518,13.485-18.518,13.485s12.856-15.992,10.802-18.873
			c-2.053-2.879-16.037,11.078-17.027,10.144s11.934-12.027,9.542-15.711c-2.394-3.685-21.218,11.25-20.655,16.187
			c0.564,4.939,5.613,5.447,5.613,5.447s1.845,8.173,6.324,9.194c0,0,6.337,9.543,11.041,7.594
			C1825.988,1102.335,1827.644,1112.223,1835.633,1109.781z"/>
	</g>
	<g style="clip-path:url(#SVGID_00000025417203464965428790000015339040728233618077_);">
		<rect x="-2299.5" y="1584.819" style="fill:#1B1B70;" width="4015.525" height="77.019"/>
		<path style="fill:#1B1B70;" d="M1024.238,2796.921c-0.121,0-0.252-0.004-0.373-0.014c-3.989-0.202-7.055-3.633-6.855-7.655
			l59.024-1166.299c0.2-4.018,3.649-7.143,7.591-6.908c3.984,0.207,7.055,3.633,6.855,7.655L1031.457,2790
			C1031.26,2793.895,1028.069,2796.921,1024.238,2796.921z"/>
		<path style="fill:#1B1B70;" d="M1591.379,2796.921c-3.83,0-7.022-3.026-7.218-6.921l-59.019-1166.3
			c-0.2-4.022,2.87-7.448,6.86-7.655c4.017-0.226,7.381,2.89,7.591,6.908l59.014,1166.299c0.205,4.022-2.866,7.453-6.855,7.655
			C1591.631,2796.917,1591.5,2796.921,1591.379,2796.921z"/>
		<path style="fill:#1B1B70;" d="M-2182.347,2796.921c-0.121,0-0.25-0.004-0.373-0.014c-3.984-0.202-7.055-3.633-6.855-7.655
			l59.024-1166.299c0.2-4.018,3.649-7.143,7.591-6.908c3.987,0.207,7.057,3.633,6.854,7.655l-59.021,1166.3
			C-2175.325,2793.895-2178.517,2796.921-2182.347,2796.921z"/>
		<path style="fill:#1B1B70;" d="M-1615.204,2796.921c-3.828,0-7.02-3.026-7.218-6.921l-59.019-1166.3
			c-0.2-4.022,2.87-7.448,6.857-7.655c4.017-0.226,7.382,2.89,7.591,6.908l59.017,1166.299c0.203,4.022-2.866,7.453-6.855,7.655
			C-1614.955,2796.917-1615.081,2796.921-1615.204,2796.921z"/>
	</g>
	<g style="clip-path:url(#SVGID_00000025417203464965428790000015339040728233618077_);">
		<g>
			<rect x="549.426" y="840.176" style="fill:#060633;" width="862.236" height="597.874"/>
			<rect x="580.62" y="870.33" style="fill:#B9CAEF;" width="798.683" height="535.855"/>
			<g>
				<rect x="580.62" y="870.33" style="fill:#A8BFEF;" width="797.498" height="535.801"/>
			</g>
			<rect x="638.436" y="932.622" style="fill:#FA7267;" width="181.002" height="18.407"/>
			<rect x="638.436" y="1171.914" style="fill:#FA7267;" width="181.002" height="13.269"/>
			<g>
				<g>
					<rect x="638.436" y="995.643" style="fill:#FFFFFF;" width="208.23" height="12.268"/>
					<rect x="865.458" y="995.643" style="fill:#FFFFFF;" width="80.529" height="12.268"/>
					<rect x="968.229" y="995.643" style="fill:#FFFFFF;" width="157.606" height="12.268"/>
				</g>
				<g>
					<rect x="638.436" y="1032.712" style="fill:#FFFFFF;" width="208.23" height="11.142"/>
					<rect x="870.067" y="1032.712" style="fill:#FFFFFF;" width="134.327" height="11.142"/>
					<rect x="1053.105" y="1032.712" style="fill:#FFFFFF;" width="157.606" height="11.142"/>
				</g>
				<g>
					<rect x="638.436" y="1063.396" style="fill:#FFFFFF;" width="208.23" height="12.273"/>
					<rect x="865.458" y="1063.396" style="fill:#FFFFFF;" width="80.529" height="12.273"/>
					<rect x="968.229" y="1063.396" style="fill:#FFFFFF;" width="157.606" height="12.273"/>
				</g>
				<g>
					<rect x="638.436" y="1100.465" style="fill:#FFFFFF;" width="208.23" height="11.146"/>
					<rect x="870.067" y="1100.465" style="fill:#FFFFFF;" width="134.327" height="11.146"/>
					<rect x="1053.105" y="1100.465" style="fill:#FFFFFF;" width="157.606" height="11.146"/>
				</g>
			</g>
			<g>
				<g>
					<rect x="638.436" y="1229.176" style="fill:#FFFFFF;" width="208.23" height="12.268"/>
					<rect x="865.458" y="1229.176" style="fill:#FFFFFF;" width="80.529" height="12.268"/>
					<rect x="968.229" y="1229.176" style="fill:#FFFFFF;" width="157.606" height="12.268"/>
				</g>
				<g>
					<rect x="638.436" y="1266.245" style="fill:#FFFFFF;" width="208.23" height="11.141"/>
					<rect x="870.067" y="1266.245" style="fill:#FFFFFF;" width="134.327" height="11.141"/>
					<rect x="1053.105" y="1266.245" style="fill:#FFFFFF;" width="157.606" height="11.141"/>
				</g>
				<g>
					<rect x="638.436" y="1296.93" style="fill:#FFFFFF;" width="208.23" height="12.273"/>
					<rect x="865.458" y="1296.93" style="fill:#FFFFFF;" width="80.529" height="12.273"/>
					<rect x="968.229" y="1296.93" style="fill:#FFFFFF;" width="157.606" height="12.273"/>
				</g>
				<g>
					<rect x="638.436" y="1333.998" style="fill:#FFFFFF;" width="208.23" height="11.146"/>
					<rect x="870.067" y="1333.998" style="fill:#FFFFFF;" width="134.327" height="11.146"/>
					<rect x="1053.105" y="1333.998" style="fill:#FFFFFF;" width="157.606" height="11.146"/>
				</g>
			</g>
		</g>
		<rect x="907.263" y="1438.05" style="fill:#060633;" width="152.27" height="106.333"/>
		<rect x="808.289" y="1544.383" style="fill:#060633;" width="355.931" height="39.952"/>
	</g>
	<g style="clip-path:url(#SVGID_00000025417203464965428790000015339040728233618077_);">
		<g>
			<path style="fill:#FB9391;" d="M915.28,1530.769c9.52-1.922,74.234-8.637,99.929,5.756
				c25.695,14.398,36.986,47.809,36.986,47.809h-88.502L915.28,1530.769z"/>
			<path style="fill:#060633;" d="M334.671,789.289c-0.853-0.24-1.654-0.705-2.307-1.396c-1.92-2.035-1.84-5.258,0.177-7.195
				c6.091-5.832,21.818-13.026,37.826,1.518c2.069,1.884,2.232,5.103,0.368,7.19c-1.864,2.086-5.056,2.246-7.125,0.371
				c-13.137-11.96-23.668-2.129-24.116-1.702C338.162,789.35,336.321,789.749,334.671,789.289z"/>
			<path style="fill:#FB9391;" d="M764.585,2586.371c0,0,8.439,113.212,9.292,114.8c0.857,1.589-8.029,15.474-8.029,15.474
				l-34.712,6.273l-31.679-14.689c0,0-17.19-110.44-20.504-126.713C675.635,2565.248,764.585,2586.371,764.585,2586.371z"/>
			<path style="fill:#1146CC;" d="M699.456,2708.229c0,0,40.011,14.116,74.206-9.239c0,0,133.216,50.352,129.152,88.64
				c0,0,5.671,11.405-52.048,8.938c-57.723-2.462-147.424-5.052-149.828-6.396C698.534,2788.829,687.233,2794.98,699.456,2708.229z"
				/>
			<path style="fill:#FB9391;" d="M487.874,2577.503c0,0-1.58,110.966-0.723,112.554c0.853,1.588-8.034,15.479-8.034,15.479
				l-34.712,6.269l-31.678-14.69c0,0,2.796-103.165-0.522-119.434C408.891,2561.413,487.874,2577.503,487.874,2577.503z"/>
			<path style="fill:#1146CC;" d="M412.727,2697.115c0,0,40.006,14.116,74.206-9.239c0,0,133.22,50.352,129.152,88.635
				c0,0,5.671,11.41-52.048,8.947c-57.719-2.467-147.424-5.056-149.828-6.4C411.804,2777.72,400.503,2783.867,412.727,2697.115z"/>
			<g>
				<path style="fill:#FB9391;" d="M360.497,759.003l-0.116,0.033c-0.083-1.57-0.167-3.139-0.307-4.713
					c-6.314-69.83-69.788-120.538-139.605-109.42c-58.171,9.258-101.798,60.615-101.9,119.993
					c-0.042,22.048,5.629,42.466,15.429,60.097c13.733,27.401,25.751,50.812,37.984,70.069
					c20.229,31.846,29.144,69.674,26.273,107.385l-2.26,29.661c77.645,32.951,108.075-7.124,108.075-7.124l-3.481-53.744
					c-0.457-7.016,4.511-13.143,11.398-14.234c0.042-0.005,0.084-0.014,0.126-0.019
					C403.388,942.509,364.267,800.712,360.497,759.003z"/>
			</g>
			<path style="fill:#0B0755;" d="M12.138,1666.824l371.514-108.578l144.721,111.6l-7.982,136.657l0.54-0.057l161.973,134.049
				c37.21,30.798,60.594,75.374,64.9,123.719l50.617,568.434H659.832l-148.141-565.746v565.746H387.549l-90.837-518.717
				L90.986,1973.835c-67.361-45.869-88.196-128.386-86.094-210.316L12.138,1666.824z"/>
			<path style="fill:#1146CC;" d="M189.522,1017.475h120.587l46.74,203.826v391.022c0,0-110.698,54.078-256.454-16.64l42.5-457.576
				L189.522,1017.475z"/>
			<path style="fill:#1146CC;" d="M189.522,1017.475c0,0-181.941,77.649-217.693,127.564
				c-33.021,46.103-28.384,2.255-123.49,261.019c-12.437,33.848-6.976,71.099,13.225,99.533
				c8.271,11.644,20.048,20.295,33.357,25.305l93.698,35.249l11.901,365.36l404.223,4.563L189.522,1017.475z"/>
			<path style="fill:#1146CC;" d="M310.109,1017.475c0,0,181.945,77.649,217.697,127.564c35.752,49.919-6.874,661.407-6.874,661.407
				l-164.083-194.123L310.109,1017.475z"/>
			<path style="fill:#060633;" d="M150.182,639.366c3.458-3.571,9.847-6.447,12.755-2.41c1.174,1.63,1.193,3.811,1.044,5.818
				c-0.424,5.831-1.799,11.588-4.059,16.978c20.322-24.027,54.224-31.489,85.544-31.019c31.315,0.475,62.425,7.378,93.708,5.827
				c12.4-0.615,27.27-1.504,34.559,8.637c5.084,7.077,3.919,17.425-1.179,24.492c-5.093,7.067-13.355,11.221-21.767,13.313
				c6.459-2.749,14.558-0.893,19.209,4.399c4.646,5.291,5.494,13.623,2.008,19.755c-5.326,9.38-17.629,11.452-28.314,12.331
				c-34.009,2.81-68.167,3.783-102.273,2.919c4.958,4.036,9.916,8.073,14.879,12.11c1.692,1.377,3.449,2.843,4.255,4.877
				c1.109,2.796,0.136,6.029-1.482,8.567c-4.189,6.55-12.195,9.732-19.908,10.235c-7.712,0.507-15.369-1.245-22.997-2.505
				c-11.133-1.833-22.438-2.623-33.716-2.354c-2.329,0.056-4.739,0.174-6.845,1.179c-2.852,1.349-4.749,4.088-6.762,6.532
				c-12.004,14.558-31.031,20.752-48.995,26.255c-5.578,1.711-12.964,2.81-16.063-2.171c-1.202-1.931-1.361-4.318-1.436-6.598
				c-0.895-27.264,5.69-54.74,18.826-78.589c-3.369,6.118-11.682,7.627-15.42,0.503c-4.758-9.07,6.543-16.555,12.899-20.282
				c5.811-3.407,11.343-4.126,15.667-9.825C141.1,659.399,141.794,648.036,150.182,639.366z"/>
			<path style="fill:#1146CC;" d="M483.302,1107.093c0,0,60.244,33.401,85.735,107.291c25.485,73.89,72.729,236.608,120.694,254.004
				c38.231,13.868,242.241,48.458,242.241,48.458l40.654,67.974c0,0-283.547,18.867-353.321,10.249
				c-111.1-13.726-121.953-250.573-121.953-250.573L483.302,1107.093z"/>
			<path style="fill:#060633;" d="M356.848,700.634c0,0-46.702,176.824-75.157,204.653c-28.459,27.833-63.763,24.041-95.288,18.139
				c-31.525-5.903-103.857-138.339-63.884-182.483C162.489,696.795,356.848,700.634,356.848,700.634z"/>
			<polygon style="fill:#1146CC;" points="310.109,1017.475 528.374,1669.845 548.659,1941.133 0.521,1931.505 69.154,1226.898 			
				"/>
		</g>
		<g>
			<rect x="142.739" y="1753.512" style="fill:#060633;" width="44.246" height="208.333"/>
			<path style="fill:#FA7267;" d="M539.607,2090.931h-562.74c-4.505,0-8.156-3.652-8.156-8.156v-158.332
				c0-4.505,3.652-8.156,8.156-8.156h562.74c4.505,0,8.156,3.652,8.156,8.156v158.332
				C547.763,2087.279,544.111,2090.931,539.607,2090.931z"/>
			<path style="fill:#FA7267;" d="M358.69,1791.956H-69.362c-5.952,0-10.777-4.825-10.777-10.777v-431.831
				c0-5.952,4.825-10.776,10.776-10.776H358.69c5.952,0,10.776,4.825,10.776,10.776v431.832
				C369.467,1787.131,364.642,1791.956,358.69,1791.956z"/>
			<rect x="247.99" y="2090.931" style="fill:#060633;" width="44.251" height="630.519"/>
			<path style="fill:#060633;" d="M50.62,2734.838h439.942c7.335,0,13.276-5.996,13.276-13.388s-5.942-13.388-13.276-13.388H50.62
				c-7.335,0-13.276,5.996-13.276,13.388S43.285,2734.838,50.62,2734.838z"/>
			<path style="fill:#060633;" d="M424.413,2762.62c0-18.007,14.479-32.608,32.34-32.608c17.857,0,32.336,14.601,32.336,32.608
				c0,18.011-14.479,32.612-32.336,32.612C438.892,2795.232,424.413,2780.632,424.413,2762.62z"/>
			<path style="fill:#060633;" d="M60.164,2762.62c0-18.007,14.479-32.608,32.335-32.608c17.857,0,32.336,14.601,32.336,32.608
				c0,18.011-14.479,32.612-32.336,32.612C74.643,2795.232,60.164,2780.632,60.164,2762.62z"/>
			<path style="fill:#060633;" d="M237.78,2762.62c0-18.007,14.478-32.608,32.336-32.608c17.857,0,32.336,14.601,32.336,32.608
				c0,18.011-14.479,32.612-32.336,32.612C252.258,2795.232,237.78,2780.632,237.78,2762.62z"/>
		</g>
		<path style="fill:#FB9391;" d="M333.749,835.458c-0.694-4.478-3.094-8.496-6.552-11.391c-7.125-5.958-20.387-14.229-33.468-7.424
			c-19.186,9.981-2.242,58.274,32.797,48.265C326.526,864.907,337.421,859.235,333.749,835.458z"/>
		<path style="fill:#80B5FA;" d="M198.203,974.229l-30.588,52.936c0,0,44.638,40.074,174.406,4.563c0,0-3.467-42.227-60.091-47.504
			C225.301,978.947,198.203,974.229,198.203,974.229z"/>
	</g>
	<g style="clip-path:url(#SVGID_00000025417203464965428790000015339040728233618077_);">
		<circle style="fill:#89B4FD;" cx="536.384" cy="387.727" r="144.155"/>
		<path style="fill:#FFFFFF;" d="M648.26,386.672C648.26,323.341,596.919,272,533.586,272c-63.331,0-114.672,51.341-114.672,114.672
			c0,63.333,51.341,114.673,114.672,114.673C596.919,501.346,648.26,450.005,648.26,386.672z"/>
		<path style="fill:#7798F8;" d="M546.287,385.527c0-7.091-5.748-12.838-12.839-12.838c-7.089,0-12.837,5.748-12.837,12.838
			c0,7.09,5.748,12.839,12.837,12.839C540.539,398.365,546.287,392.616,546.287,385.527z"/>
		<g>
			<path style="fill:#7798F8;" d="M533.449,388.075h-2.566c-1.409,0-2.549-1.14-2.549-2.548c0-1.409,1.14-2.548,2.549-2.548h0.023
				l0.119-79.12l-3.183,4.615c-0.806,1.159-2.393,1.441-3.544,0.652c-1.154-0.798-1.448-2.386-0.647-3.543l7.843-11.371
				c0.631-0.923,1.785-1.32,2.855-0.985c1.065,0.331,1.787,1.319,1.787,2.436l-0.139,89.869
				C535.997,386.935,534.852,388.075,533.449,388.075z"/>
			<path style="fill:#7798F8;" d="M542.251,308.843c-0.736,0-1.473-0.321-1.974-0.938l-8.664-10.636
				c-0.892-1.092-0.728-2.697,0.367-3.586c1.084-0.885,2.693-0.727,3.583,0.366l8.664,10.637c0.892,1.092,0.726,2.696-0.367,3.585
				C543.388,308.656,542.819,308.843,542.251,308.843z"/>
		</g>
		<g>
			<path style="fill:#7798F8;" d="M487.281,396.328c-0.667,0-1.334-0.261-1.832-0.778l-7.568-7.84
				c-0.712-0.737-0.915-1.826-0.512-2.767c0.398-0.941,1.323-1.55,2.343-1.55h0.005l59.787,0.136
				c1.404,0.003,2.543,1.142,2.543,2.548v2.568c0,1.408-1.14,2.548-2.548,2.548c-1.407,0-2.547-1.14-2.547-2.548v-0.025
				l-51.226-0.117l3.385,3.508c0.979,1.013,0.951,2.625-0.061,3.603C488.554,396.091,487.918,396.328,487.281,396.328z"/>
			<path style="fill:#7798F8;" d="M479.712,388.488c-0.567,0-1.139-0.189-1.612-0.574c-1.09-0.891-1.248-2.496-0.364-3.585
				l7.076-8.666c0.901-1.092,2.502-1.247,3.588-0.36c1.089,0.891,1.248,2.495,0.362,3.585l-7.075,8.666
				C481.18,388.17,480.449,388.488,479.712,388.488z"/>
		</g>
	</g>
	<g style="clip-path:url(#SVGID_00000025417203464965428790000015339040728233618077_);">
		<g>
			<path style="fill:#FF6760;" d="M1638.274,1455.305l-261.097,0.141l0.004,7.249l133.955-0.071
				c13.5-0.007,24.448,10.534,24.454,23.546l0,0c0.007,13.013-10.93,23.566-24.429,23.572l-133.955,0.073l0.003,6.793l261.097-0.139
				c17.524-0.01,31.719-13.706,31.71-30.598l0,0C1670.008,1468.981,1655.799,1455.297,1638.274,1455.305L1638.274,1455.305z"/>
			<path style="fill:#EB4C4B;" d="M1547.5,1485.937L1547.5,1485.937c-0.009-16.889-14.222-30.575-31.743-30.565l-138.58,0.074
				l0.004,7.249l133.955-0.071c13.5-0.007,24.448,10.534,24.454,23.546l0,0c0.007,13.013-10.93,23.566-24.429,23.572l-133.955,0.073
				l0.003,6.793l138.58-0.074C1533.311,1516.525,1547.509,1502.827,1547.5,1485.937L1547.5,1485.937z"/>
			<path style="fill:#FFFFFF;" d="M1511.136,1462.648l-133.955,0.073v0.161c12.171,1.344,21.628,11.296,21.634,23.386l0,0
				c0.006,12.091-9.44,22.056-21.609,23.41v0.161l133.955-0.071c13.499-0.007,24.436-10.56,24.429-23.572l0,0
				C1535.584,1473.182,1524.636,1462.641,1511.136,1462.648L1511.136,1462.648z"/>
			<path style="fill:#A6C6FD;" d="M1535.59,1485.941c-0.007-13.009-10.954-23.552-24.454-23.546l-133.955,0.071v0.163
				c6.292,0.693,11.855,3.693,15.766,8.097c26.792-2.059,106.7-4.486,115.144,38.789h3.071
				C1524.661,1509.507,1535.598,1498.955,1535.59,1485.941L1535.59,1485.941z"/>
		</g>
		<g>
			<path style="fill:#3238C2;" d="M1371.587,1516.611l323.154-0.172l0.005,8.323l-165.793,0.088
				c-16.709,0.01-30.245,12.124-30.237,27.059l0,0c0.008,14.934,13.557,27.034,30.266,27.026l165.793-0.088l0.004,7.804
				l-323.154,0.172c-21.688,0.012-39.275-15.696-39.286-35.084l0,0C1332.328,1532.348,1349.899,1516.622,1371.587,1516.611
				L1371.587,1516.611z"/>
			<path style="fill:#4B49F2;" d="M1483.978,1551.657L1483.978,1551.657c-0.01-19.389,17.562-35.116,39.25-35.127l171.513-0.091
				l0.005,8.323l-165.793,0.088c-16.709,0.01-30.245,12.124-30.237,27.059l0,0c0.008,14.934,13.557,27.034,30.266,27.026
				l165.793-0.088l0.004,7.804l-171.513,0.091C1501.577,1586.753,1483.988,1571.045,1483.978,1551.657L1483.978,1551.657z"/>
			<path style="fill:#FFFFFF;" d="M1528.953,1524.878l165.793-0.088v0.185c-15.06,1.555-26.753,12.992-26.746,26.871l0,0
				c0.008,13.882,11.713,25.306,26.774,26.846v0.185l-165.793,0.089c-16.709,0.008-30.258-12.091-30.266-27.029l0,0
				C1498.708,1537.001,1512.243,1524.887,1528.953,1524.878L1528.953,1524.878z"/>
			<path style="fill:#A6C6FD;" d="M1498.715,1551.649c-0.009-14.934,13.528-27.049,30.237-27.059l165.793-0.088v0.182
				c-7.786,0.808-14.666,4.255-19.499,9.317c-33.165-2.333-132.067-5.016-142.462,44.672l-3.802,0.002
				C1512.272,1578.684,1498.724,1566.583,1498.715,1551.649L1498.715,1551.649z"/>
		</g>
	</g>
</g>
<g>
	<g>
		<path style="fill:#FFFFFF;" d="M1844.17,611.499c-0.201,0.135-0.504,0.201-0.907,0.201c-0.872,0-1.31-0.469-1.31-1.411v-11.285
			c0-0.806,0.118-1.36,0.353-1.663c0.236-0.302,0.689-0.587,1.36-0.857l26.5-10.782l-26.5-10.781
			c-0.671-0.268-1.124-0.554-1.36-0.856c-0.234-0.302-0.353-0.857-0.353-1.663v-11.084c0-0.94,0.438-1.411,1.31-1.411
			c0.202,0,0.504,0.068,0.907,0.202l44.436,19.951c0.672,0.269,1.125,0.604,1.36,1.008c0.236,0.403,0.353,0.975,0.353,1.713v6.046
			c0,0.74-0.117,1.31-0.353,1.713c-0.235,0.403-0.688,0.74-1.36,1.007L1844.17,611.499z"/>
	</g>
	<g>
		<g>
			<rect x="1385.63" y="496.319" style="fill:#FFFFFF;" width="208.229" height="12.268"/>
			<rect x="1612.652" y="496.319" style="fill:#FFFFFF;" width="80.529" height="12.268"/>
			<rect x="1715.423" y="496.319" style="fill:#FFFFFF;" width="157.606" height="12.268"/>
		</g>
		<g>
			<rect x="1155.363" y="579.67" style="fill:#FFFFFF;" width="208.229" height="12.268"/>
			<rect x="1382.385" y="579.67" style="fill:#FFFFFF;" width="80.529" height="12.268"/>
			<rect x="1485.156" y="579.67" style="fill:#FFFFFF;" width="157.606" height="12.268"/>
		</g>
		<g>
			<path style="fill:#FFFFFF;" d="M1157.076,507.503c-0.672-0.267-1.125-0.604-1.36-1.007c-0.236-0.403-0.353-0.973-0.353-1.713
				v-6.046c0-0.738,0.117-1.31,0.353-1.713c0.235-0.403,0.688-0.738,1.36-1.008l44.436-19.951c0.403-0.134,0.705-0.202,0.907-0.202
				c0.872,0,1.31,0.471,1.31,1.411v11.084c0,0.806-0.118,1.36-0.353,1.663c-0.236,0.302-0.689,0.589-1.36,0.856l-26.5,10.781
				l26.5,10.782c0.671,0.269,1.124,0.554,1.36,0.857c0.234,0.302,0.353,0.856,0.353,1.663v11.285c0,0.941-0.438,1.411-1.31,1.411
				c-0.403,0-0.706-0.066-0.907-0.201L1157.076,507.503z"/>
		</g>
		<g>
			<path style="fill:#FFFFFF;" d="M1301.4,527.455c-0.201,0.135-0.504,0.201-0.907,0.201c-0.872,0-1.31-0.469-1.31-1.411V514.96
				c0-0.806,0.118-1.36,0.353-1.663c0.236-0.302,0.689-0.587,1.36-0.857l26.5-10.782l-26.5-10.781
				c-0.671-0.268-1.124-0.554-1.36-0.856c-0.234-0.302-0.353-0.856-0.353-1.663v-11.084c0-0.94,0.438-1.411,1.31-1.411
				c0.202,0,0.504,0.068,0.907,0.202l44.436,19.951c0.672,0.27,1.125,0.604,1.36,1.008c0.236,0.403,0.353,0.975,0.353,1.713v6.046
				c0,0.74-0.117,1.31-0.353,1.713c-0.235,0.403-0.688,0.74-1.36,1.007L1301.4,527.455z"/>
		</g>
		<g>
			<path style="fill:#FFFFFF;" d="M1230.533,528.911c0-0.5,0.11-0.971,0.333-1.416l21.487-52.385
				c0.444-1.11,1.249-1.665,2.415-1.665h10.328c0.887,0,1.331,0.417,1.331,1.249c0,0.389-0.083,0.833-0.25,1.333l-21.487,52.385
				c-0.445,1.111-1.278,1.666-2.498,1.666h-10.244C1231.004,530.076,1230.533,529.688,1230.533,528.911z"/>
		</g>
		<g>
			<path style="fill:#FFFFFF;" d="M1699.846,591.547c-0.672-0.268-1.125-0.604-1.36-1.007c-0.236-0.403-0.353-0.973-0.353-1.713
				v-6.046c0-0.738,0.117-1.31,0.353-1.713c0.235-0.403,0.688-0.738,1.36-1.008l44.436-19.951c0.403-0.134,0.705-0.202,0.907-0.202
				c0.872,0,1.31,0.471,1.31,1.411v11.084c0,0.806-0.118,1.36-0.353,1.663c-0.236,0.302-0.689,0.589-1.36,0.856l-26.5,10.781
				l26.5,10.782c0.671,0.269,1.124,0.554,1.36,0.857c0.234,0.302,0.353,0.856,0.353,1.663v11.285c0,0.941-0.438,1.411-1.31,1.411
				c-0.403,0-0.706-0.066-0.907-0.201L1699.846,591.547z"/>
		</g>
		<g>
			<path style="fill:#FFFFFF;" d="M1773.303,612.955c0-0.5,0.11-0.971,0.333-1.416l21.487-52.385
				c0.444-1.11,1.249-1.665,2.415-1.665h10.328c0.887,0,1.331,0.417,1.331,1.249c0,0.389-0.083,0.833-0.25,1.333l-21.486,52.385
				c-0.445,1.111-1.278,1.666-2.499,1.666h-10.244C1773.774,614.12,1773.303,613.732,1773.303,612.955z"/>
		</g>
	</g>
</g>
<rect x="1131.822" y="375.879" style="fill:#FFFFFF;" width="758.497" height="30.267"/>
</svg>
