<svg width="254" height="145" viewBox="0 0 254 145" fill="none" xmlns="http://www.w3.org/2000/svg">
<path d="M168.565 0.628335C160.431 2.54897 152.635 8.98876 146.987 18.592C140.773 29.099 129.701 48.1924 126.085 54.7452C124.165 58.1345 121.878 61.7968 121.878 61.7968C121.878 61.7968 119.42 65.8171 116.934 69.9973C114.449 74.0645 111.485 79.7476 111.485 79.7476C111.485 79.7476 104.394 91.8022 101.908 96.4343C94.1125 110.896 94.9033 123.662 104.281 134.056C110.042 140.383 116.03 143.095 125.634 143.772C132.864 144.224 134.559 143.885 140.095 141.287C146.874 137.898 148.907 135.638 157.607 121.403C167.21 105.812 175.683 91.8022 175.683 91.3503C175.683 91.1243 178.96 85.4754 183.027 78.5837C187.094 71.8049 191.791 63.6864 191.791 63.6864C191.791 63.6864 195.115 58.1345 198.053 55.0841C203.928 49.0962 208.221 47.4015 214.887 48.6443C216.92 48.9832 218.615 49.0962 218.615 48.7573C218.615 48.4183 215 40.6228 210.707 31.5845C202.007 13.6209 196.245 6.05132 188.676 2.66195C182.914 0.176421 174.101 -0.72741 168.565 0.628335Z" fill="url(#paint0_linear_102_165)"/>
<path d="M72.1394 0.931091C64.005 2.85173 56.2094 9.29151 50.5605 18.8947C44.3467 29.4017 33.2747 48.4951 29.6594 55.0479C27.7388 58.4373 25.4515 62.0995 25.4515 62.0995C25.4515 62.0995 22.9937 66.1198 20.5081 70.3C18.0226 74.3673 15.0589 80.0504 15.0589 80.0504C15.0589 80.0504 7.9675 92.1049 5.48197 96.737C-2.31356 111.198 -1.52271 123.965 7.85453 134.359C13.6164 140.686 19.6043 143.397 29.2075 144.075C36.4382 144.527 38.1328 144.188 43.6688 141.59C50.4475 138.2 52.4811 135.941 61.1805 121.705C70.7837 106.114 79.2571 92.1049 79.2571 91.653C79.2571 91.4271 82.5335 85.7781 86.6007 78.8864C90.668 72.1077 95.3652 63.9891 95.3652 63.9891C95.3652 63.9891 110.481 41.0179 109.5 26.5C108.689 14.5 99.8192 6.35407 92.2497 2.96471C86.4877 0.479174 77.6754 -0.424654 72.1394 0.931091Z" fill="url(#paint1_linear_102_165)"/>
<circle cx="222.878" cy="113.884" r="30" fill="#15E6E7"/>
<defs>
<linearGradient id="paint0_linear_102_165" x1="157.607" y1="143.941" x2="157.607" y2="-0.00140381" gradientUnits="userSpaceOnUse">
<stop stop-color="#AE94E8"/>
<stop offset="1" stop-color="#15E6E7"/>
</linearGradient>
<linearGradient id="paint1_linear_102_165" x1="54.8598" y1="144.244" x2="54.8598" y2="0.301346" gradientUnits="userSpaceOnUse">
<stop stop-color="#AE94E8"/>
<stop offset="1" stop-color="#4A10CF"/>
</linearGradient>
</defs>
</svg>
