<svg width="65" height="65" viewBox="0 0 65 65" fill="none" xmlns="http://www.w3.org/2000/svg">
<g clip-path="url(#clip0_812_283)">
<path d="M58.2279 13.5439H41.9779C38.2539 13.5439 35.207 16.5908 35.207 20.3175L35.2124 40.3862C35.2124 42.71 37.7827 44.1183 39.7408 42.8644L47.3945 37.9162H58.2279C61.9681 37.9162 64.9987 34.8856 64.9987 31.1454V20.3148C64.9987 16.5746 61.9681 13.5439 58.2279 13.5439ZM58.2279 13.5439H41.9779C38.2539 13.5439 35.207 16.5908 35.207 20.3175L35.2124 40.3862C35.2124 42.71 37.7827 44.1183 39.7408 42.8644L47.3945 37.9162H58.2279C61.9681 37.9162 64.9987 34.8856 64.9987 31.1454V20.3148M58.2279 13.5439H41.9779C38.2539 13.5439 35.207 16.5908 35.207 20.3175L35.2124 40.3862C35.2124 42.71 37.7827 44.1183 39.7408 42.8644M58.2279 13.5439H41.9779C38.2539 13.5439 35.207 16.5908 35.207 20.3175L35.2124 40.3862C35.2124 42.71 37.7827 44.1183 39.7408 42.8644L47.3945 37.9162H58.2279C61.9681 37.9162 64.9987 34.8856 64.9987 31.1454V20.3148C64.9987 16.5746 61.9681 13.5439 58.2279 13.5439ZM58.2279 13.5439H41.9779C38.2539 13.5439 35.207 16.5908 35.207 20.3175L35.2124 40.3862C35.2124 42.71 37.7827 44.1183 39.7408 42.8644L47.3945 37.9162H58.2279M58.2279 13.5439H41.9779C38.2539 13.5439 35.207 16.5908 35.207 20.3175L35.2124 40.3862C35.2124 42.71 37.7827 44.1183 39.7408 42.8644L47.3945 37.9162H58.2279" fill="#683BF2"/>
<path d="M46.0417 32.4997H54.1667C57.1594 32.4997 59.5806 30.0757 59.5806 27.083H54.8762L51.5125 29.3634C50.6594 29.9322 49.5462 29.9322 48.6931 29.3634L45.3294 27.083H40.625C40.625 30.0757 43.049 32.4997 46.0417 32.4997Z" fill="white"/>
<path d="M46.0417 18.958C43.049 18.958 40.625 21.382 40.625 24.3747H59.5833C59.5833 21.382 57.1594 18.958 54.1667 18.958H46.0417Z" fill="white"/>
<path d="M0 43.336H30.3496C30.0002 42.4071 29.7971 41.4131 29.7971 40.3867L29.7917 20.3179C29.7917 13.5958 35.2598 8.12771 41.9792 8.12771H42.1769C40.0806 3.35292 35.3302 0 29.7917 0H13.5417C6.07479 0 0 6.07479 0 13.5417V43.336Z" fill="#231747"/>
<path d="M12.1875 65C5.45729 65 0 59.5427 0 52.8125V48.75H43.3333V52.8125C43.3333 59.5427 37.876 65 31.1458 65H12.1875Z" fill="#231747"/>
<path d="M24.375 54.167H18.9583C17.4633 54.167 16.25 55.3776 16.25 56.8753C16.25 58.373 17.4633 59.5837 18.9583 59.5837H24.375C25.87 59.5837 27.0833 58.373 27.0833 56.8753C27.0833 55.3776 25.87 54.167 24.375 54.167Z" fill="white"/>
</g>
<defs>
<clipPath id="clip0_812_283">
<rect width="65" height="65" fill="white"/>
</clipPath>
</defs>
</svg>
