<svg width="40" height="40" viewBox="0 0 40 40" fill="none" xmlns="http://www.w3.org/2000/svg">
<path d="M10 9.16797C10 10.548 8.88 11.668 7.5 11.668C6.12 11.668 5 10.548 5 9.16797C5 7.78797 6.12 6.66797 7.5 6.66797C8.88 6.66797 10 7.78797 10 9.16797ZM14.1667 6.66797C12.7867 6.66797 11.6667 7.78797 11.6667 9.16797C11.6667 10.548 12.7867 11.668 14.1667 11.668C15.5467 11.668 16.6667 10.548 16.6667 9.16797C16.6667 7.78797 15.5467 6.66797 14.1667 6.66797ZM40 10.0013V20.0013C40 20.9213 39.255 21.668 38.3333 21.668C37.4117 21.668 36.6667 20.9213 36.6667 20.0013V16.668H3.33333V30.0013C3.33333 31.5263 4.01667 32.9496 5.20833 33.9046C5.92833 34.4813 6.04333 35.5296 5.46667 36.2463C5.13833 36.658 4.65333 36.8713 4.165 36.8713C3.8 36.8713 3.43333 36.753 3.125 36.5046C1.14 34.9146 0 32.543 0 30.0013V10.0013C0 5.4063 3.73833 1.66797 8.33333 1.66797H31.6667C36.2617 1.66797 40 5.4063 40 10.0013ZM36.6667 13.3346V10.0013C36.6667 7.24464 34.4233 5.0013 31.6667 5.0013H8.33333C5.57667 5.0013 3.33333 7.24464 3.33333 10.0013V13.3346H36.6667ZM36.775 25.0013C36.205 25.0013 35.675 25.4046 35.3733 26.068L33.4333 30.3346L31.4933 26.068C31.1917 25.4046 30.6617 25.0013 30.0917 25.0013C29.2317 25.0013 28.5167 25.493 28.445 26.668L27.7033 36.9046C27.6467 37.6763 28.2583 38.3346 29.0333 38.3346C29.7317 38.3346 30.3133 37.7946 30.3633 37.098L30.805 30.998L32.2183 34.108C32.6917 35.1496 34.1717 35.1496 34.6467 34.108L36.06 30.998L36.5017 37.098C36.5517 37.7946 37.1317 38.3346 37.8317 38.3346C38.6067 38.3346 39.2167 37.678 39.1617 36.9046L38.42 26.668C38.3483 25.493 37.6333 25.0013 36.7733 25.0013H36.775ZM24.9883 32.5746C25.0283 32.5513 26.2433 36.613 26.2433 36.613C26.5033 37.4696 25.8633 38.3346 24.9683 38.3346H24.8633C24.27 38.3346 23.7483 37.943 23.5833 37.373L22.4083 33.3346H21.1017V37.0013C21.1017 37.738 20.505 38.3346 19.7683 38.3346C19.0317 38.3346 18.435 37.738 18.435 37.0013V27.5013C18.435 26.1213 19.555 25.0013 20.935 25.0013H22.38C24.52 25.0013 26.4733 26.5146 26.7367 28.638C26.9383 30.2646 26.1967 31.728 24.9917 32.5746H24.9883ZM24.1 29.168C24.1 28.3413 23.4267 27.668 22.6 27.668H21.1V30.668H22.6C23.4267 30.668 24.1 29.9946 24.1 29.168ZM12.3017 27.6963C12.995 27.5613 13.6267 27.908 13.9233 28.4596C14.1567 28.893 14.605 29.1663 15.0967 29.1663C16.1067 29.1663 16.7517 28.0863 16.2733 27.198C15.5517 25.8546 14.115 24.953 12.4717 25.0013C10.1917 25.0696 8.43333 27.0596 8.43333 29.3413V33.9913C8.43333 36.273 10.1917 38.263 12.4717 38.3313C14.115 38.3813 15.5517 37.478 16.2733 36.1346C16.75 35.2446 16.105 34.1663 15.0967 34.1663C14.605 34.1663 14.1567 34.4396 13.9233 34.873C13.6267 35.4246 12.995 35.7713 12.3017 35.6363C11.59 35.498 11.1 34.833 11.1 34.1063V29.618C11.1 28.498 11.5883 27.833 12.3017 27.6946V27.6963Z" fill="white"/>
</svg>
