<svg width="40" height="40" viewBox="0 0 40 40" fill="none" xmlns="http://www.w3.org/2000/svg">
<g clip-path="url(#clip0_817_321)">
<path d="M40 16.6711V26.6711C40 31.2661 36.2617 35.0045 31.6667 35.0045H21.6667V36.6711H26.6667C27.5883 36.6711 28.3333 37.4161 28.3333 38.3378C28.3333 39.2595 27.5883 40.0045 26.6667 40.0045H13.3333C12.4117 40.0045 11.6667 39.2595 11.6667 38.3378C11.6667 37.4161 12.4117 36.6711 13.3333 36.6711H18.3333V35.0045H8.33333C3.73833 35.0045 0 31.2661 0 26.6711V16.6711C0 12.8661 2.57 9.54781 6.25167 8.60115C7.13667 8.37781 8.05167 8.90781 8.28167 9.79948C8.51167 10.6911 7.97333 11.5995 7.08167 11.8278C4.875 12.3961 3.33333 14.3878 3.33333 16.6711V26.6711C3.33333 29.4278 5.57667 31.6711 8.33333 31.6711H31.6667C34.4233 31.6711 36.6667 29.4278 36.6667 26.6711V16.6711C36.6667 14.3878 35.125 12.3961 32.9183 11.8278C32.0267 11.5995 31.49 10.6895 31.7183 9.79948C31.9483 8.90781 32.8667 8.37615 33.7483 8.60115C37.43 9.54781 40 12.8661 40 16.6711ZM10.5067 15.2278L12.095 14.3111C11.8167 13.4811 11.6667 12.5945 11.6667 11.6728C11.6667 10.7511 11.8183 9.86281 12.095 9.03448L10.5067 8.11781C9.70833 7.65781 9.435 6.63781 9.89667 5.84115C10.3567 5.04281 11.3767 4.76948 12.1733 5.23115L13.7667 6.15115C14.9433 4.82615 16.5333 3.87615 18.3333 3.50948V1.67448C18.3333 0.754479 19.0783 0.0078125 20 0.0078125C20.9217 0.0078125 21.6667 0.754479 21.6667 1.67448V3.50948C23.4667 3.87615 25.0583 4.82615 26.2333 6.15115L27.8267 5.23115C28.62 4.76948 29.6417 5.04281 30.1033 5.84115C30.5633 6.63948 30.29 7.65781 29.4933 8.11781L27.905 9.03448C28.1833 9.86448 28.3333 10.7511 28.3333 11.6728C28.3333 12.5945 28.1817 13.4828 27.905 14.3111L29.4933 15.2278C30.2917 15.6878 30.565 16.7078 30.1033 17.5045C29.7933 18.0395 29.235 18.3378 28.6583 18.3378C28.375 18.3378 28.0883 18.2661 27.8267 18.1145L26.2333 17.1945C25.0567 18.5195 23.4667 19.4695 21.6667 19.8361V21.6711C21.6667 22.5928 20.9217 23.3378 20 23.3378C19.0783 23.3378 18.3333 22.5928 18.3333 21.6711V19.8361C16.5333 19.4695 14.9417 18.5195 13.7667 17.1945L12.1733 18.1145C11.9117 18.2661 11.625 18.3378 11.3417 18.3378C10.765 18.3378 10.205 18.0395 9.89667 17.5045C9.43667 16.7061 9.71 15.6878 10.5067 15.2278ZM15 11.6711C15 14.4278 17.2433 16.6711 20 16.6711C22.7567 16.6711 25 14.4278 25 11.6711C25 8.91448 22.7567 6.67115 20 6.67115C17.2433 6.67115 15 8.91448 15 11.6711Z" fill="white"/>
<path d="M20 14.168C21.38 14.168 22.5 13.048 22.5 11.668C22.5 10.288 21.38 9.16797 20 9.16797C18.62 9.16797 17.5 10.288 17.5 11.668C17.5 13.048 18.62 14.168 20 14.168Z" fill="white"/>
</g>
<defs>
<clipPath id="clip0_817_321">
<rect width="40" height="40" fill="white"/>
</clipPath>
</defs>
</svg>
