<svg width="65" height="65" viewBox="0 0 65 65" fill="none" xmlns="http://www.w3.org/2000/svg">
<path d="M61.5595 21.667C60.7579 15.278 59.577 10.4762 59.5012 10.1755C59.2791 9.27637 58.6102 8.55595 57.7327 8.26345C57.3833 8.14699 48.9983 5.41699 32.5018 5.41699C16.0054 5.41699 7.61495 8.14699 7.26828 8.26345C6.39078 8.55595 5.72182 9.27908 5.49974 10.1755C5.42391 10.4762 4.24307 15.278 3.44141 21.667H61.5595Z" fill="#683BF2"/>
<path d="M25.7305 10.833C27.9784 10.833 29.793 12.6476 29.793 14.8955C29.793 17.1434 27.9784 18.958 25.7305 18.958C23.4826 18.958 21.668 17.1407 21.668 14.8955C21.668 12.6503 23.4826 10.833 25.7305 10.833Z" fill="white"/>
<path d="M14.8945 10.833C17.1424 10.833 18.957 12.6476 18.957 14.8955C18.957 17.1434 17.1424 18.958 14.8945 18.958C12.6466 18.958 10.832 17.1407 10.832 14.8955C10.832 12.6503 12.6466 10.833 14.8945 10.833Z" fill="white"/>
<path d="M2.90745 27.083C2.78557 28.8543 2.70703 30.6716 2.70703 32.4997C2.70703 43.5388 5.38286 54.3668 5.49661 54.8245C5.7187 55.7236 6.38766 56.444 7.26516 56.7365C7.61453 56.853 15.9995 59.583 32.496 59.583C48.9924 59.583 57.3774 56.853 57.7268 56.7365C58.6043 56.444 59.2733 55.7209 59.4954 54.8245C59.6091 54.3695 62.2849 43.5388 62.2849 32.4997C62.2849 30.6716 62.2064 28.8543 62.0845 27.083H2.90745Z" fill="#231747"/>
<path d="M23.0221 54.1664C13.543 54.1664 13.543 45.7571 13.543 42.9946C13.543 38.5746 14.1903 34.8858 14.2201 34.7314C14.4801 33.2608 15.8884 32.2858 17.359 32.5404C18.8323 32.8031 19.8128 34.2087 19.5528 35.6821C19.5473 35.7146 18.9596 39.0729 18.9596 42.9946C18.9596 48.4708 20.5034 48.7498 23.0221 48.7498C25.5409 48.7498 27.0846 48.4708 27.0846 42.9946C27.0846 39.0756 26.4969 35.7146 26.4915 35.6821C26.2288 34.2087 27.2119 32.8031 28.6853 32.5404C30.1559 32.2939 31.5642 33.2608 31.8242 34.7314C31.854 34.8858 32.5013 38.5718 32.5013 42.9946C32.5013 45.7571 32.5013 54.1664 23.0221 54.1664Z" fill="white"/>
<path d="M50.7291 53.3031C50.1955 53.8772 49.4697 54.167 48.7466 54.167C48.0884 54.167 47.4303 53.9287 46.9076 53.4466C46.8209 53.3654 45.3368 51.9625 43.3326 49.4383C41.3284 51.9625 39.8443 53.3654 39.7576 53.4466C39.2376 53.9287 38.5768 54.167 37.9186 54.167C37.1928 54.167 36.4697 53.8772 35.9361 53.3031C34.9178 52.2089 34.9801 50.4972 36.0716 49.4762C36.0932 49.4572 37.832 47.8024 40.0474 44.8206C36.987 40.0322 35.5976 36.3029 35.5353 36.1404C35.0234 34.7347 35.7438 33.1856 37.1468 32.671C38.5605 32.1591 40.1097 32.8768 40.6216 34.277C40.6324 34.3068 41.4991 36.6035 43.3326 39.7993C45.1661 36.6008 46.0328 34.3041 46.0436 34.277C46.5582 32.8768 48.1128 32.1618 49.5184 32.671C50.9213 33.1856 51.6418 34.7375 51.1299 36.1404C51.0676 36.3029 49.6782 40.0322 46.6178 44.8206C48.8332 47.8024 50.572 49.4572 50.5936 49.4762C51.6824 50.4945 51.7474 52.2089 50.7291 53.3031Z" fill="white"/>
</svg>
