<svg width="40" height="40" viewBox="0 0 40 40" fill="none" xmlns="http://www.w3.org/2000/svg">
<g clip-path="url(#clip0_817_319)">
<path d="M15 31.6683C15.92 31.6683 16.6667 32.415 16.6667 33.335C16.6667 34.255 15.92 35.0017 15 35.0017H11.6667C10.7467 35.0017 10 34.255 10 33.335C10 32.415 10.7467 31.6683 11.6667 31.6683H15ZM40 12.5033V19.1683C40 21.47 38.135 23.335 35.8333 23.335H29.1667L24.4567 26.38C23.2517 27.1517 21.67 26.285 21.67 24.855L21.6667 12.505C21.6667 10.2133 23.5417 8.33667 25.8333 8.33667H35.8333C38.135 8.33667 40 10.2017 40 12.5033ZM36.6667 16.6683H33.7717L31.7017 18.0717C31.1767 18.4217 30.4917 18.4217 29.9667 18.0717L27.8967 16.6683H25.0017C25.0017 18.51 26.4933 20.0017 28.335 20.0017H33.335C35.1767 20.0017 36.6667 18.51 36.6667 16.6683ZM36.6667 15.0017C36.6667 13.16 35.175 11.6683 33.3333 11.6683H28.3333C26.4917 11.6683 25 13.16 25 15.0017H36.6667ZM25 30.0017C24.08 30.0017 23.3333 30.7483 23.3333 31.6683C23.3333 34.425 21.09 36.6683 18.3333 36.6683H8.33333C5.57667 36.6683 3.33333 34.425 3.33333 31.6683V30.0017H16.6667C17.5867 30.0017 18.3333 29.255 18.3333 28.335C18.3333 27.415 17.5867 26.6683 16.6667 26.6683H3.33333V8.335C3.33333 5.57833 5.57667 3.335 8.33333 3.335H18.3333C19.86 3.335 21.2817 4.01833 22.2367 5.21C22.8117 5.92833 23.8617 6.04167 24.58 5.46833C25.2983 4.89333 25.4133 3.84333 24.8383 3.125C23.2467 1.14 20.8767 0 18.3333 0H8.33333C3.73833 0.00166667 0 3.74 0 8.335V31.6683C0 36.2633 3.73833 40.0017 8.33333 40.0017H18.3333C22.9283 40.0017 26.6667 36.2633 26.6667 31.6683C26.6667 30.7483 25.92 30.0017 25 30.0017Z" fill="white"/>
</g>
<defs>
<clipPath id="clip0_817_319">
<rect width="40" height="40" fill="white"/>
</clipPath>
</defs>
</svg>
