<svg width="40" height="40" viewBox="0 0 40 40" fill="none" xmlns="http://www.w3.org/2000/svg">
<path d="M21.905 29.143L23.89 25.8346L21.905 22.5263C21.4317 21.7363 21.6867 20.713 22.4767 20.2396C23.2667 19.7646 24.29 20.0213 24.7633 20.8113L25.835 22.5963L26.9067 20.8113C27.38 20.0213 28.4033 19.7646 29.1933 20.2396C29.9833 20.713 30.2383 21.7363 29.765 22.5263L27.78 25.8346L29.765 29.143C30.2383 29.933 29.9833 30.9563 29.1933 31.4296C28.925 31.5913 28.63 31.668 28.3367 31.668C27.77 31.668 27.2183 31.3796 26.9067 30.8596L25.835 29.0746L24.7633 30.8596C24.45 31.3796 23.8983 31.668 23.3333 31.668C23.0417 31.668 22.745 31.5913 22.4767 31.4296C21.6867 30.9563 21.4317 29.933 21.905 29.143ZM15 31.668C17.7567 31.668 20 29.4246 20 26.668V21.668C20 20.748 19.2533 20.0013 18.3333 20.0013C17.4133 20.0013 16.6667 20.748 16.6667 21.668V26.668C16.6667 27.588 15.9183 28.3346 15 28.3346C14.0817 28.3346 13.3333 27.588 13.3333 26.668V21.668C13.3333 20.748 12.5867 20.0013 11.6667 20.0013C10.7467 20.0013 10 20.748 10 21.668V26.668C10 29.4246 12.2433 31.668 15 31.668ZM7.5 6.66797C6.12 6.66797 5 7.78797 5 9.16797C5 10.548 6.12 11.668 7.5 11.668C8.88 11.668 10 10.548 10 9.16797C10 7.78797 8.88 6.66797 7.5 6.66797ZM40 10.0013V30.0013C40 34.5963 36.2617 38.3346 31.6667 38.3346H8.33333C3.73833 38.3346 0 34.5963 0 30.0013V10.0013C0 5.4063 3.73833 1.66797 8.33333 1.66797H31.6667C36.2617 1.66797 40 5.4063 40 10.0013ZM36.6667 16.668H3.33333V30.0013C3.33333 32.758 5.57667 35.0013 8.33333 35.0013H31.6667C34.4233 35.0013 36.6667 32.758 36.6667 30.0013V16.668ZM36.6667 10.0013C36.6667 7.24464 34.4233 5.0013 31.6667 5.0013H8.33333C5.57667 5.0013 3.33333 7.24464 3.33333 10.0013V13.3346H36.6667V10.0013ZM14.1667 6.66797C12.7867 6.66797 11.6667 7.78797 11.6667 9.16797C11.6667 10.548 12.7867 11.668 14.1667 11.668C15.5467 11.668 16.6667 10.548 16.6667 9.16797C16.6667 7.78797 15.5467 6.66797 14.1667 6.66797Z" fill="white"/>
</svg>
