<svg width="40" height="40" viewBox="0 0 40 40" fill="none" xmlns="http://www.w3.org/2000/svg">
<path d="M31.6667 1.66797H8.33333C6.12401 1.67062 4.00593 2.54944 2.4437 4.11167C0.88147 5.6739 0.00264643 7.79198 0 10.0013L0 30.0013C0.00264643 32.2106 0.88147 34.3287 2.4437 35.8909C4.00593 37.4532 6.12401 38.332 8.33333 38.3346H31.6667C33.876 38.332 35.9941 37.4532 37.5563 35.8909C39.1185 34.3287 39.9974 32.2106 40 30.0013V10.0013C39.9974 7.79198 39.1185 5.6739 37.5563 4.11167C35.9941 2.54944 33.876 1.67062 31.6667 1.66797ZM8.33333 5.0013H31.6667C32.9927 5.0013 34.2645 5.52809 35.2022 6.46577C36.1399 7.40345 36.6667 8.67522 36.6667 10.0013V11.668H3.33333V10.0013C3.33333 8.67522 3.86012 7.40345 4.7978 6.46577C5.73548 5.52809 7.00725 5.0013 8.33333 5.0013ZM31.6667 35.0013H8.33333C7.00725 35.0013 5.73548 34.4745 4.7978 33.5368C3.86012 32.5992 3.33333 31.3274 3.33333 30.0013V15.0013H36.6667V30.0013C36.6667 31.3274 36.1399 32.5992 35.2022 33.5368C34.2645 34.4745 32.9927 35.0013 31.6667 35.0013ZM31.6667 21.668C31.6667 22.11 31.4911 22.5339 31.1785 22.8465C30.866 23.159 30.442 23.3346 30 23.3346H10C9.55797 23.3346 9.13405 23.159 8.82149 22.8465C8.50893 22.5339 8.33333 22.11 8.33333 21.668C8.33333 21.2259 8.50893 20.802 8.82149 20.4895C9.13405 20.1769 9.55797 20.0013 10 20.0013H30C30.442 20.0013 30.866 20.1769 31.1785 20.4895C31.4911 20.802 31.6667 21.2259 31.6667 21.668ZM25 28.3346C25 28.7767 24.8244 29.2006 24.5118 29.5131C24.1993 29.8257 23.7754 30.0013 23.3333 30.0013H10C9.55797 30.0013 9.13405 29.8257 8.82149 29.5131C8.50893 29.2006 8.33333 28.7767 8.33333 28.3346C8.33333 27.8926 8.50893 27.4687 8.82149 27.1561C9.13405 26.8436 9.55797 26.668 10 26.668H23.3333C23.7754 26.668 24.1993 26.8436 24.5118 27.1561C24.8244 27.4687 25 27.8926 25 28.3346ZM5 8.33464C5 8.005 5.09775 7.68277 5.28088 7.40869C5.46402 7.1346 5.72432 6.92098 6.02886 6.79484C6.3334 6.66869 6.66852 6.63568 6.99182 6.69999C7.31512 6.7643 7.61209 6.92304 7.84518 7.15612C8.07826 7.38921 8.237 7.68618 8.30131 8.00949C8.36562 8.33279 8.33261 8.6679 8.20647 8.97244C8.08032 9.27698 7.8667 9.53728 7.59262 9.72042C7.31853 9.90355 6.9963 10.0013 6.66667 10.0013C6.22464 10.0013 5.80072 9.82571 5.48816 9.51315C5.17559 9.20059 5 8.77666 5 8.33464ZM10 8.33464C10 8.005 10.0977 7.68277 10.2809 7.40869C10.464 7.1346 10.7243 6.92098 11.0289 6.79484C11.3334 6.66869 11.6685 6.63568 11.9918 6.69999C12.3151 6.7643 12.6121 6.92304 12.8452 7.15612C13.0783 7.38921 13.237 7.68618 13.3013 8.00949C13.3656 8.33279 13.3326 8.6679 13.2065 8.97244C13.0803 9.27698 12.8667 9.53728 12.5926 9.72042C12.3185 9.90355 11.9963 10.0013 11.6667 10.0013C11.2246 10.0013 10.8007 9.82571 10.4882 9.51315C10.1756 9.20059 10 8.77666 10 8.33464ZM15 8.33464C15 8.005 15.0977 7.68277 15.2809 7.40869C15.464 7.1346 15.7243 6.92098 16.0289 6.79484C16.3334 6.66869 16.6685 6.63568 16.9918 6.69999C17.3151 6.7643 17.6121 6.92304 17.8452 7.15612C18.0783 7.38921 18.237 7.68618 18.3013 8.00949C18.3656 8.33279 18.3326 8.6679 18.2065 8.97244C18.0803 9.27698 17.8667 9.53728 17.5926 9.72042C17.3185 9.90355 16.9963 10.0013 16.6667 10.0013C16.2246 10.0013 15.8007 9.82571 15.4882 9.51315C15.1756 9.20059 15 8.77666 15 8.33464Z" fill="white"/>
</svg>
